<svg xmlns="http://www.w3.org/2000/svg" viewBox="0 0 24 24" fill="#F97316">
  <path d="M5 5.5A.5.5 0 0 1 5.5 5H6v6.5a2 2 0 0 1-2 2h-1v3a3 3 0 0 1-3 3H2a1 1 0 0 1-1-1v-2a1 1 0 0 1 1-1h1a1 1 0 0 0 1-1V6h.5A.5.5 0 0 1 5 5.5zM8 8.5a.5.5 0 0 0 .5-.5V4a1 1 0 0 0-1-1H4a1 1 0 0 0-1 1v5a.5.5 0 0 0 .5.5h1a.5.5 0 0 0 .5-.5V4.5a.5.5 0 0 1 .5-.5h2a.5.5 0 0 1 .5.5v3zm6.5.5a.5.5 0 0 0-.5-.5V4a1 1 0 0 0-1-1h-1a3 3 0 0 0-3 3v1a1 1 0 0 0 1 1h1a1 1 0 0 1 1 1v2a1 1 0 0 1-1 1h-1a1 1 0 0 1-1-1v-1a1 1 0 0 1 1-1h1a1 1 0 0 0 1-1V4.5a.5.5 0 0 1 .5-.5h2a.5.5 0 0 1 .5.5v3z"/>
  <path d="M4 11h12v2H4zM4 14h8v1H4z" fill="#1E293B"/>
</svg>